<?xml version="1.0" encoding="utf-8"?>
<!-- Generator: Adobe Illustrator 15.1.0, SVG Export Plug-In . SVG Version: 6.00 Build 0)  -->
<!DOCTYPE svg PUBLIC "-//W3C//DTD SVG 1.1//EN" "http://www.w3.org/Graphics/SVG/1.1/DTD/svg11.dtd">
<svg version="1.1" id="Layer_1" xmlns="http://www.w3.org/2000/svg" xmlns:xlink="http://www.w3.org/1999/xlink" x="0px" y="0px"
	 width="75px" height="75px" viewBox="0 0 75 75" enable-background="new 0 0 75 75" xml:space="preserve">
<g>
	<path fill="#00663C" d="M37.501,0c-20.71,0-37.5,16.789-37.5,37.5S16.791,75,37.501,75c20.711,0,37.5-16.789,37.5-37.5
		S58.212,0,37.501,0z M55.63,49.822c-0.019,0.138-0.067,0.27-0.144,0.386c-0.125,0.198-3.144,4.772-8.713,4.772
		c-0.35,0-0.707-0.019-1.072-0.058c-7.003-0.737-20.532-6.644-26.826-24.093c-0.032-0.09-0.05-0.184-0.055-0.279
		c-0.197-4.51,1.489-8.194,4.749-10.373c0.152-0.102,0.33-0.156,0.515-0.158l0.519-0.002c0.654,0,1.234,0.011,1.729,0.028
		l1.917,0.113c0.355,0.021,0.669,0.241,0.81,0.569l3.634,8.478c0.122,0.286,0.096,0.613-0.071,0.875l-2.78,4.38
		c1.001,1.795,5.066,8.378,11.829,10.5c2.692-2.633,4.214-4.27,4.229-4.286c0.279-0.304,0.729-0.387,1.102-0.207l8.664,4.19
		c0.366,0.178,0.576,0.568,0.521,0.974L55.63,49.822z"/>
	<path fill="#00663C" d="M42.588,46.699c-0.238,0.232-0.583,0.32-0.904,0.232c-8.981-2.467-13.586-11.703-13.78-12.096
		c-0.144-0.293-0.125-0.642,0.05-0.919l2.808-4.423l-3.208-7.488l-1.312-0.078c-0.453-0.015-1.012-0.025-1.643-0.025l-0.213,0.001
		c-2.507,1.795-3.812,4.77-3.69,8.424C26.709,46.83,39.8,52.407,45.896,53.051c4.539,0.479,7.317-2.915,7.895-3.699l0.438-3.289
		L46.8,42.467C46.1,43.2,44.65,44.695,42.588,46.699z"/>
</g>
</svg>
