<?xml version="1.0" encoding="utf-8"?>
<!-- Generator: Adobe Illustrator 15.1.0, SVG Export Plug-In . SVG Version: 6.00 Build 0)  -->
<!DOCTYPE svg PUBLIC "-//W3C//DTD SVG 1.1//EN" "http://www.w3.org/Graphics/SVG/1.1/DTD/svg11.dtd">
<svg version="1.1" id="Layer_1" xmlns="http://www.w3.org/2000/svg" xmlns:xlink="http://www.w3.org/1999/xlink" x="0px" y="0px"
	 width="75px" height="75px" viewBox="0 0 75 75" enable-background="new 0 0 75 75" xml:space="preserve">
<g>
	<path fill="#00663C" d="M46.439,25.429c-0.521,0-0.941-0.422-0.941-0.941v-6.029H24.356v38.087h28.406V25.429H46.439z
		 M30.742,51.415c-0.824,0-1.492-0.668-1.492-1.492c0-0.823,0.668-1.491,1.492-1.491c0.824,0,1.492,0.668,1.492,1.491
		C32.234,50.747,31.566,51.415,30.742,51.415z M30.742,44.898c-0.824,0-1.492-0.668-1.492-1.491c0-0.824,0.668-1.492,1.492-1.492
		c0.824,0,1.492,0.668,1.492,1.492C32.234,44.23,31.566,44.898,30.742,44.898z M30.742,38.46c-0.824,0-1.492-0.668-1.492-1.492
		c0-0.824,0.668-1.492,1.492-1.492c0.824,0,1.492,0.668,1.492,1.492C32.234,37.792,31.566,38.46,30.742,38.46z M30.742,32.376
		c-0.824,0-1.492-0.668-1.492-1.492c0-0.824,0.668-1.492,1.492-1.492c0.824,0,1.492,0.668,1.492,1.492
		C32.234,31.708,31.566,32.376,30.742,32.376z M47.871,50.667H35.618c-0.412,0-0.744-0.333-0.744-0.745
		c0-0.411,0.332-0.744,0.744-0.744h12.253c0.411,0,0.745,0.333,0.745,0.744C48.616,50.334,48.281,50.667,47.871,50.667z
		 M47.871,44.152H35.618c-0.412,0-0.744-0.334-0.744-0.745c0-0.412,0.332-0.744,0.744-0.744h12.253c0.411,0,0.745,0.332,0.745,0.744
		C48.616,43.818,48.281,44.152,47.871,44.152z M47.871,37.713H35.618c-0.412,0-0.744-0.333-0.744-0.745
		c0-0.412,0.332-0.744,0.744-0.744h12.253c0.411,0,0.745,0.333,0.745,0.744C48.616,37.379,48.281,37.713,47.871,37.713z
		 M47.871,31.629H35.618c-0.412,0-0.744-0.333-0.744-0.745c0-0.411,0.332-0.744,0.744-0.744h12.253c0.411,0,0.745,0.333,0.745,0.744
		C48.616,31.295,48.281,31.629,47.871,31.629z"/>
	<polygon fill="#00663C" points="47.383,19.723 47.383,23.544 51.361,23.544 	"/>
	<path fill="#00663C" d="M37.509,0.001c-20.71,0-37.5,16.79-37.5,37.5c0,20.711,16.79,37.5,37.5,37.5
		c20.711,0,37.5-16.789,37.5-37.5C75.009,16.791,58.22,0.001,37.509,0.001z M54.646,57.489c0,0.517-0.42,0.94-0.942,0.94H23.415
		c-0.521,0-0.942-0.422-0.942-0.941V17.516c0-0.519,0.422-0.942,0.942-0.942h23.024v0.008c0.239,0,0.474,0.082,0.652,0.253
		l7.266,6.972c0.188,0.182,0.28,0.429,0.281,0.68h0.008V57.489z"/>
</g>
</svg>
