<?xml version="1.0" encoding="utf-8"?>
<!-- Generator: Adobe Illustrator 15.1.0, SVG Export Plug-In . SVG Version: 6.00 Build 0)  -->
<!DOCTYPE svg PUBLIC "-//W3C//DTD SVG 1.1//EN" "http://www.w3.org/Graphics/SVG/1.1/DTD/svg11.dtd">
<svg version="1.1" id="Layer_1" xmlns="http://www.w3.org/2000/svg" xmlns:xlink="http://www.w3.org/1999/xlink" x="0px" y="0px"
	 width="75px" height="75px" viewBox="0 0 75 75" enable-background="new 0 0 75 75" xml:space="preserve">
<g>
	<rect x="42.836" y="33.436" fill="#00663C" width="12.562" height="18.96"/>
	<rect x="19.598" y="22.601" fill="#00663C" width="15.048" height="12.405"/>
	<rect x="41.582" y="22.601" fill="#00663C" width="13.818" height="3.612"/>
	<path fill="#00663C" d="M37.498,0c-20.711,0-37.5,16.789-37.5,37.5S16.787,75,37.498,75s37.5-16.789,37.5-37.5S58.209,0,37.498,0z
		 M34.357,53.34c-0.001,0.52-0.423,0.941-0.941,0.941h-14.76c-0.521,0-0.941-0.422-0.941-0.941V42.156
		c0-0.521,0.422-0.942,0.941-0.942h14.76c0.521,0,0.941,0.421,0.941,0.942V53.34z M36.53,35.95c0,0.519-0.422,0.941-0.941,0.941
		H18.655c-0.52,0-0.941-0.422-0.941-0.941V21.66c0-0.52,0.422-0.941,0.941-0.941h16.934c0.521,0,0.941,0.422,0.941,0.941V35.95z
		 M57.283,53.34c0.002,0.52-0.422,0.941-0.941,0.941H41.895c-0.52,0-0.942-0.422-0.942-0.941V32.495c0-0.52,0.424-0.942,0.942-0.942
		h14.447c0.52,0,0.941,0.422,0.941,0.942V53.34z M57.285,27.156c0,0.52-0.424,0.942-0.943,0.942H40.639
		c-0.521,0-0.94-0.422-0.94-0.942v-5.497c0-0.52,0.422-0.941,0.94-0.941h15.703c0.52,0,0.943,0.422,0.943,0.941V27.156z"/>
	<rect x="19.598" y="43.096" fill="#00663C" width="12.875" height="9.301"/>
</g>
</svg>
