<?xml version="1.0" encoding="utf-8"?>
<!-- Generator: Adobe Illustrator 15.1.0, SVG Export Plug-In . SVG Version: 6.00 Build 0)  -->
<!DOCTYPE svg PUBLIC "-//W3C//DTD SVG 1.1//EN" "http://www.w3.org/Graphics/SVG/1.1/DTD/svg11.dtd">
<svg version="1.1" id="Layer_1" xmlns="http://www.w3.org/2000/svg" xmlns:xlink="http://www.w3.org/1999/xlink" x="0px" y="0px"
	 width="35px" height="29px" viewBox="0 0 35 29" enable-background="new 0 0 35 29" xml:space="preserve">
<path fill="#FFFFFF" d="M35,3.366c-1.287,0.573-2.673,0.958-4.123,1.132c1.481-0.889,2.622-2.296,3.156-3.973
	c-1.387,0.823-2.925,1.422-4.561,1.743C28.165,0.871,26.298,0,24.234,0c-3.967,0-7.183,3.215-7.183,7.18
	c0,0.563,0.064,1.111,0.187,1.636C11.27,8.517,5.98,5.657,2.438,1.314C1.82,2.375,1.465,3.608,1.465,4.925
	c0,2.492,1.269,4.688,3.194,5.977c-1.176-0.039-2.284-0.363-3.252-0.899c0,0.03,0,0.059,0,0.089c0,3.479,2.474,6.381,5.759,7.04
	c-0.602,0.166-1.237,0.254-1.893,0.254c-0.462,0-0.912-0.045-1.35-0.129c0.914,2.852,3.565,4.928,6.708,4.986
	c-2.458,1.924-5.554,3.072-8.917,3.072c-0.581,0-1.152-0.033-1.714-0.1c3.178,2.037,6.952,3.225,11.008,3.225
	c13.206,0,20.43-10.939,20.43-20.428c0-0.311-0.008-0.62-0.021-0.929C32.82,6.072,34.037,4.807,35,3.366z"/>
</svg>
