<?xml version="1.0" encoding="utf-8"?>
<!-- Generator: Adobe Illustrator 15.1.0, SVG Export Plug-In . SVG Version: 6.00 Build 0)  -->
<!DOCTYPE svg PUBLIC "-//W3C//DTD SVG 1.1//EN" "http://www.w3.org/Graphics/SVG/1.1/DTD/svg11.dtd">
<svg version="1.1" id="Layer_1" xmlns="http://www.w3.org/2000/svg" xmlns:xlink="http://www.w3.org/1999/xlink" x="0px" y="0px"
	 width="223.74px" height="117px" viewBox="0 0 223.74 117" enable-background="new 0 0 223.74 117" xml:space="preserve">
<g>
	<g>
		<path fill="#02673D" d="M25.942,2.125h11.399l25.907,75.648h-10.88l-6.736-19.689H17.549l-6.632,19.689H0.037L25.942,2.125z
			 M21.073,47.721h21.036L31.643,16.632L21.073,47.721z"/>
		<path fill="#02673D" d="M114.441,0.052c11.399,0,22.798,5.181,30.053,14.508l-7.254,7.255c-5.18-7.255-12.434-11.504-22.28-11.504
			c-17.616,0-28.394,12.953-28.394,29.637s10.777,29.638,28.911,29.638c9.845,0,17.099-4.249,22.281-11.503l7.253,7.254
			c-7.253,9.327-18.653,14.508-30.053,14.508c-22.798,0-39.379-17.616-39.379-39.793C75.582,17.772,92.162,0.052,114.441,0.052z"/>
		<path fill="#02673D" d="M212.992,2.125h10.779v75.648h-11.92l-32.226-56.995v56.995H168.85V2.125h11.916l32.227,55.958V2.125z"/>
	</g>
	<line fill="none" stroke="#EF426F" stroke-width="3" x1="48.128" y1="115.052" x2="181.898" y2="115.052"/>
	<g>
		<path fill="#02673D" d="M52.475,97.492h1.772l4.025,11.756h-1.692l-1.047-3.06H51.17l-1.03,3.06h-1.692L52.475,97.492z
			 M51.717,104.578h3.27l-1.627-4.831L51.717,104.578z"/>
		<path fill="#02673D" d="M59.718,101.679h1.449l0.161,0.806l0.08,0.08l0.081-0.08c0.483-0.645,1.128-0.966,1.772-0.966
			c0.321,0,0.482,0,0.805,0.16v1.449H63.1c-0.95,0-1.74,0.773-1.772,1.706v4.413h-1.61L59.718,101.679L59.718,101.679z"/>
		<path fill="#02673D" d="M64.546,101.679h1.466v-1.611l1.273-1.61h0.306v3.221h1.627v1.449h-1.627v3.865
			c0,0.482,0.338,0.806,0.821,0.806l0.966-0.161v1.448l-0.886,0.161c-1.61,0-2.479-0.806-2.479-2.254v-3.865h-1.466V101.679z"/>
		<path fill="#02673D" d="M80.728,97.17c1.772,0,3.543,0.807,4.671,2.255l-1.128,1.127c-0.805-1.127-1.933-1.787-3.462-1.787
			c-2.737,0-4.413,2.013-4.413,4.604c0,2.593,1.675,4.606,4.493,4.606c1.531,0,2.657-0.66,3.462-1.787l1.128,1.127
			c-1.128,1.449-2.899,2.255-4.671,2.255c-3.542,0-6.12-2.738-6.12-6.184C74.688,99.924,77.265,97.17,80.728,97.17z"/>
		<path fill="#02673D" d="M88.05,105.866c0,1.127,0.805,2.094,2.174,2.094c0.966,0,1.627-0.483,1.868-1.128l1.353,0.645
			c-0.645,1.127-1.772,1.933-3.301,1.933c-2.013,0-3.704-1.61-3.704-3.946c0-2.334,1.61-3.944,3.704-3.944
			c1.933,0,3.542,1.529,3.542,3.864l-0.16,0.483H88.05z M88.13,104.449h3.865c-0.081-0.838-0.885-1.481-1.852-1.481
			C89.016,102.968,88.373,103.611,88.13,104.449z"/>
		<path fill="#02673D" d="M95.213,101.679h1.448l0.161,0.645l0.081,0.08l0.081-0.08c0.322-0.482,1.128-0.805,1.771-0.805
			c1.932,0,3.06,1.288,3.06,3.06v4.67h-1.61v-4.67c-0.048-1.031-0.547-1.61-1.611-1.61c-0.949,0-1.739,0.772-1.771,1.705v4.574
			h-1.61v-7.568H95.213z"/>
		<path fill="#02673D" d="M102.859,101.679h1.466v-1.611l1.273-1.61h0.305v3.221h1.627v1.449h-1.627v3.865
			c0,0.482,0.338,0.806,0.821,0.806l0.966-0.161v1.448l-0.886,0.161c-1.61,0-2.479-0.806-2.479-2.254v-3.865h-1.466V101.679z"/>
		<path fill="#02673D" d="M110.184,105.866c0,1.127,0.805,2.094,2.174,2.094c0.966,0,1.627-0.483,1.868-1.128l1.354,0.645
			c-0.646,1.127-1.772,1.933-3.302,1.933c-2.013,0-3.706-1.61-3.706-3.946c0-2.334,1.612-3.944,3.706-3.944
			c1.933,0,3.542,1.529,3.542,3.864l-0.16,0.483H110.184z M110.265,104.449h3.865c-0.081-0.838-0.886-1.481-1.852-1.481
			C111.15,102.968,110.506,103.611,110.265,104.449z"/>
		<path fill="#02673D" d="M117.347,101.679h1.449l0.161,0.806l0.08,0.08l0.08-0.08c0.483-0.645,1.128-0.966,1.771-0.966
			c0.322,0,0.483,0,0.806,0.16v1.449h-0.967c-0.949,0-1.739,0.773-1.771,1.706v4.413h-1.611L117.347,101.679L117.347,101.679z"/>
		<path fill="#02673D" d="M134.252,109.248h-1.449l-0.16-0.645l-0.08-0.081l-0.081,0.081c-0.482,0.483-1.288,0.806-2.094,0.806
			c-2.093,0-3.864-1.61-3.864-3.946c0-2.334,1.771-3.944,3.864-3.944c0.806,0,1.611,0.321,2.094,0.805l0.081,0.08l0.08-0.08
			l0.16-0.645h1.449V109.248z M130.467,102.968c-1.53,0-2.351,1.126-2.351,2.494c0,1.369,0.82,2.497,2.351,2.497
			c1.369,0,2.335-1.128,2.335-2.497C132.802,104.094,131.837,102.968,130.467,102.968z"/>
		<path fill="#02673D" d="M135.537,101.679h1.465v-1.611l1.272-1.61h0.308v3.221h1.625v1.449h-1.625v3.865
			c0,0.482,0.338,0.806,0.82,0.806l0.966-0.161v1.448l-0.885,0.161c-1.61,0-2.481-0.806-2.481-2.254v-3.865h-1.465V101.679z"/>
		<path fill="#02673D" d="M153.184,97.492h1.674v11.756h-1.852l-5.009-8.857v8.857h-1.676V97.492h1.853l5.01,8.696V97.492z"/>
		<path fill="#02673D" d="M157.268,98.458h1.611v1.771h-1.611V98.458z M157.286,101.679h1.576v7.568h-1.576V101.679z"/>
		<path fill="#02673D" d="M161.938,107.396c-0.87-0.515-1.45-1.417-1.45-2.576c0-1.852,1.45-3.301,3.302-3.301
			c0.725,0,1.53,0.321,1.853,0.805l0.08,0.08l0.081-0.08l0.161-0.645h1.127v3.141c0,1.159-0.58,2.062-1.449,2.576
			c0.869,0.451,1.449,1.273,1.449,2.352c0,1.804-1.611,2.868-3.302,2.868c-1.689,0-3.302-1.064-3.302-2.868
			C160.488,108.668,161.083,107.847,161.938,107.396z M163.79,106.671c1.047,0,1.771-0.805,1.771-1.852s-0.725-1.852-1.771-1.852
			s-1.771,0.805-1.771,1.852S162.743,106.671,163.79,106.671z M163.79,111.229c1.047,0,1.771-0.612,1.771-1.497
			c0-0.887-0.725-1.531-1.771-1.531s-1.771,0.645-1.771,1.531C162.019,110.616,162.743,111.229,163.79,111.229z"/>
		<path fill="#02673D" d="M168.939,97.009h1.61v5.314l0.081,0.08l0.08-0.08c0.322-0.482,1.128-0.805,1.771-0.805
			c1.933,0,3.061,1.288,3.061,3.06v4.67h-1.61v-4.67c-0.049-1.031-0.548-1.61-1.612-1.61c-0.949,0-1.739,0.772-1.771,1.705v4.574
			h-1.61L168.939,97.009L168.939,97.009z"/>
		<path fill="#02673D" d="M176.585,101.679h1.465v-1.611l1.272-1.61h0.308v3.221h1.626v1.449h-1.626v3.865
			c0,0.482,0.338,0.806,0.82,0.806l0.966-0.161v1.448l-0.886,0.161c-1.61,0-2.48-0.806-2.48-2.254v-3.865h-1.465V101.679z"/>
	</g>
</g>
</svg>
