<?xml version="1.0" encoding="utf-8"?>
<!-- Generator: Adobe Illustrator 15.1.0, SVG Export Plug-In . SVG Version: 6.00 Build 0)  -->
<!DOCTYPE svg PUBLIC "-//W3C//DTD SVG 1.1//EN" "http://www.w3.org/Graphics/SVG/1.1/DTD/svg11.dtd">
<svg version="1.1" id="Layer_1" xmlns="http://www.w3.org/2000/svg" xmlns:xlink="http://www.w3.org/1999/xlink" x="0px" y="0px"
	 width="75px" height="75px" viewBox="0 0 75 75" enable-background="new 0 0 75 75" xml:space="preserve">
<g>
	<path fill="#00663C" d="M37.5,26.027c-3.561,0-6.456,2.897-6.456,6.457c0,2.812,4.207,11.407,6.456,15.692
		c2.251-4.287,6.457-12.881,6.457-15.692C43.957,28.924,41.061,26.027,37.5,26.027z M37.5,37.008c-2.494,0-4.525-2.03-4.525-4.524
		c0-2.495,2.031-4.523,4.525-4.523s4.525,2.029,4.525,4.523C42.025,34.978,39.994,37.008,37.5,37.008z"/>
	<path fill="#00663C" d="M37.5,0C16.789,0,0,16.789,0,37.5S16.789,75,37.5,75S75,58.211,75,37.5S58.211,0,37.5,0z M38.121,50.016
		L37.5,51.164l-0.622-1.148c-0.296-0.547-7.247-13.444-7.247-17.532c0-4.34,3.529-7.87,7.869-7.87c4.339,0,7.869,3.529,7.869,7.87
		C45.369,36.574,38.418,49.469,38.121,50.016z"/>
	<path fill="#00663C" d="M37.5,29.373c-1.716,0-3.112,1.396-3.112,3.111c0,1.715,1.396,3.111,3.112,3.111
		c1.714,0,3.111-1.396,3.111-3.111C40.611,30.769,39.215,29.373,37.5,29.373z"/>
</g>
</svg>
