<?xml version="1.0" encoding="utf-8"?>
<!-- Generator: Adobe Illustrator 15.1.0, SVG Export Plug-In . SVG Version: 6.00 Build 0)  -->
<!DOCTYPE svg PUBLIC "-//W3C//DTD SVG 1.1//EN" "http://www.w3.org/Graphics/SVG/1.1/DTD/svg11.dtd">
<svg version="1.1" id="Layer_1" xmlns="http://www.w3.org/2000/svg" xmlns:xlink="http://www.w3.org/1999/xlink" x="0px" y="0px"
	 width="20px" height="13px" viewBox="0 0 20 13" enable-background="new 0 0 20 13" xml:space="preserve">
<g>
	<path fill="#FFFFFF" d="M16.009,3.545H3.99c-0.544,0-0.985-0.441-0.985-0.985S3.446,1.574,3.99,1.574h12.019
		c0.544,0,0.985,0.441,0.985,0.985S16.553,3.545,16.009,3.545z"/>
</g>
<g>
	<path fill="#FFFFFF" d="M16.009,7.485H3.99c-0.544,0-0.985-0.441-0.985-0.985c0-0.544,0.441-0.986,0.985-0.986h12.019
		c0.544,0,0.985,0.441,0.985,0.986C16.994,7.044,16.553,7.485,16.009,7.485z"/>
</g>
<g>
	<path fill="#FFFFFF" d="M16.009,11.426H3.99c-0.544,0-0.985-0.441-0.985-0.985S3.446,9.455,3.99,9.455h12.019
		c0.544,0,0.985,0.441,0.985,0.985S16.553,11.426,16.009,11.426z"/>
</g>
</svg>
