<?xml version="1.0" encoding="utf-8"?>
<!-- Generator: Adobe Illustrator 15.1.0, SVG Export Plug-In . SVG Version: 6.00 Build 0)  -->
<!DOCTYPE svg PUBLIC "-//W3C//DTD SVG 1.1//EN" "http://www.w3.org/Graphics/SVG/1.1/DTD/svg11.dtd">
<svg version="1.1" id="Layer_1" xmlns="http://www.w3.org/2000/svg" xmlns:xlink="http://www.w3.org/1999/xlink" x="0px" y="0px"
	 width="166px" height="87px" viewBox="0 0 166 87" enable-background="new 0 0 166 87" xml:space="preserve">
<g>
	<g>
		<path fill="#06683E" d="M19.464,1.533h8.426l19.148,55.915h-8.042l-4.979-14.554H13.26L8.359,57.447H0.317L19.464,1.533z
			 M15.866,35.234h15.548l-7.736-22.978L15.866,35.234z"/>
		<path fill="#06683E" d="M84.875,0c8.426,0,16.852,3.83,22.213,10.724l-5.361,5.362c-3.828-5.362-9.189-8.502-16.469-8.502
			c-13.02,0-20.986,9.574-20.986,21.905s7.966,21.906,21.371,21.906c7.275,0,12.637-3.141,16.467-8.502l5.359,5.362
			c-5.359,6.895-13.785,10.723-22.211,10.723c-16.851,0-29.106-13.02-29.106-29.412C56.154,13.098,68.408,0,84.875,0z"/>
		<path fill="#06683E" d="M157.717,1.533h7.967v55.915h-8.811L133.055,15.32v42.127h-7.963V1.533h8.807l23.82,41.359V1.533H157.717z
			"/>
	</g>
	<line fill="none" stroke="#EF4470" stroke-width="3" x1="35.862" y1="85" x2="134.734" y2="85"/>
	<g>
		<path fill="#06683E" d="M39.075,72.02h1.31l2.975,8.689h-1.25l-0.774-2.262h-3.225l-0.761,2.262h-1.25L39.075,72.02z
			 M38.515,77.258h2.417l-1.202-3.57L38.515,77.258z"/>
		<path fill="#06683E" d="M44.429,75.115H45.5l0.119,0.596l0.059,0.059l0.06-0.059c0.357-0.477,0.834-0.713,1.31-0.713
			c0.237,0,0.356,0,0.596,0.117v1.07h-0.715c-0.702,0-1.287,0.572-1.31,1.262v3.262h-1.19V75.115L44.429,75.115z"/>
		<path fill="#06683E" d="M47.997,75.115h1.083v-1.189l0.941-1.191h0.226v2.381h1.203v1.07h-1.203v2.859
			c0,0.354,0.25,0.594,0.607,0.594l0.713-0.119v1.07l-0.654,0.119c-1.19,0-1.833-0.596-1.833-1.664v-2.859h-1.083L47.997,75.115
			L47.997,75.115z"/>
		<path fill="#06683E" d="M59.958,71.785c1.309,0,2.618,0.596,3.451,1.664l-0.833,0.832c-0.595-0.832-1.43-1.32-2.56-1.32
			c-2.022,0-3.261,1.488-3.261,3.404s1.237,3.402,3.32,3.402c1.131,0,1.965-0.486,2.559-1.32l0.833,0.834
			c-0.833,1.07-2.142,1.668-3.451,1.668c-2.619,0-4.524-2.025-4.524-4.57C55.493,73.818,57.398,71.785,59.958,71.785z"/>
		<path fill="#06683E" d="M65.37,78.211c0,0.834,0.594,1.547,1.606,1.547c0.713,0,1.202-0.357,1.38-0.834l1,0.477
			c-0.477,0.832-1.31,1.43-2.44,1.43c-1.488,0-2.739-1.189-2.739-2.918c0-1.727,1.191-2.914,2.739-2.914
			c1.429,0,2.618,1.131,2.618,2.857l-0.119,0.357H65.37V78.211z M65.429,77.164h2.857c-0.061-0.621-0.656-1.098-1.37-1.098
			C66.083,76.066,65.608,76.543,65.429,77.164z"/>
		<path fill="#06683E" d="M70.664,75.115h1.071l0.118,0.477l0.06,0.061l0.061-0.061c0.238-0.355,0.833-0.594,1.309-0.594
			c1.427,0,2.26,0.951,2.26,2.26v3.453h-1.189v-3.453c-0.034-0.76-0.404-1.189-1.19-1.189c-0.702,0-1.285,0.572-1.309,1.26v3.381
			h-1.19V75.115L70.664,75.115L70.664,75.115z"/>
		<path fill="#06683E" d="M76.315,75.115h1.084v-1.189l0.939-1.191h0.226v2.381h1.203v1.07h-1.203v2.859
			c0,0.354,0.252,0.594,0.608,0.594l0.713-0.119v1.07l-0.654,0.119c-1.191,0-1.832-0.596-1.832-1.664v-2.859h-1.084V75.115z"/>
		<path fill="#06683E" d="M81.729,78.211c0,0.834,0.595,1.547,1.608,1.547c0.714,0,1.203-0.357,1.38-0.834l1.002,0.477
			c-0.479,0.832-1.311,1.43-2.443,1.43c-1.487,0-2.738-1.189-2.738-2.918c0-1.727,1.191-2.914,2.738-2.914
			c1.429,0,2.619,1.131,2.619,2.857l-0.117,0.357h-4.049V78.211z M81.789,77.164h2.857c-0.061-0.621-0.656-1.098-1.371-1.098
			C82.444,76.066,81.967,76.543,81.789,77.164z"/>
		<path fill="#06683E" d="M87.023,75.115h1.072l0.119,0.596l0.059,0.059l0.059-0.059c0.357-0.477,0.834-0.713,1.309-0.713
			c0.238,0,0.357,0,0.596,0.117v1.07h-0.715c-0.701,0-1.285,0.572-1.307,1.262v3.262h-1.193L87.023,75.115L87.023,75.115z"/>
		<path fill="#06683E" d="M99.518,80.709h-1.068l-0.119-0.477l-0.061-0.061l-0.059,0.061c-0.357,0.357-0.951,0.598-1.549,0.598
			c-1.547,0-2.854-1.191-2.854-2.918s1.307-2.914,2.854-2.914c0.598,0,1.191,0.236,1.549,0.594l0.059,0.061l0.061-0.061l0.119-0.477
			h1.068V80.709z M96.719,76.066c-1.129,0-1.736,0.834-1.736,1.844c0,1.014,0.607,1.848,1.736,1.848
			c1.014,0,1.729-0.834,1.729-1.848C98.447,76.9,97.734,76.066,96.719,76.066z"/>
		<path fill="#06683E" d="M100.469,75.115h1.082v-1.189l0.941-1.191h0.227v2.381h1.201v1.07h-1.201v2.859
			c0,0.354,0.25,0.594,0.605,0.594l0.715-0.119v1.07l-0.654,0.119c-1.189,0-1.834-0.596-1.834-1.664v-2.859h-1.082V75.115
			L100.469,75.115z"/>
		<path fill="#06683E" d="M113.512,72.02h1.238v8.689h-1.371l-3.701-6.545v6.545h-1.238V72.02h1.369l3.703,6.428V72.02
			L113.512,72.02z"/>
		<path fill="#06683E" d="M116.531,72.734h1.189v1.311h-1.189V72.734z M116.543,75.115h1.164v5.594h-1.164V75.115z"/>
		<path fill="#06683E" d="M119.982,79.342c-0.643-0.381-1.072-1.049-1.072-1.904c0-1.371,1.072-2.439,2.441-2.439
			c0.535,0,1.131,0.236,1.369,0.594l0.061,0.061l0.059-0.061l0.119-0.477h0.832v2.322c0,0.855-0.428,1.523-1.07,1.904
			c0.643,0.332,1.07,0.939,1.07,1.738c0,1.334-1.189,2.119-2.439,2.119c-1.248,0-2.441-0.785-2.441-2.119
			C118.91,80.281,119.352,79.674,119.982,79.342z M121.352,78.805c0.773,0,1.309-0.594,1.309-1.369c0-0.773-0.537-1.369-1.309-1.369
			c-0.775,0-1.311,0.596-1.311,1.369C120.041,78.211,120.576,78.805,121.352,78.805z M121.352,82.174
			c0.773,0,1.309-0.453,1.309-1.107s-0.537-1.131-1.309-1.131c-0.775,0-1.311,0.477-1.311,1.131S120.576,82.174,121.352,82.174z"/>
		<path fill="#06683E" d="M125.156,71.664h1.189v3.928l0.061,0.059l0.061-0.059c0.238-0.357,0.83-0.596,1.309-0.596
			c1.428,0,2.262,0.953,2.262,2.262v3.451h-1.189v-3.451c-0.037-0.762-0.404-1.191-1.193-1.191c-0.699,0-1.283,0.572-1.309,1.262
			v3.381h-1.189V71.664L125.156,71.664z"/>
		<path fill="#06683E" d="M130.809,75.115h1.082v-1.189l0.941-1.191h0.227v2.381h1.201v1.07h-1.201v2.859
			c0,0.354,0.25,0.594,0.607,0.594l0.713-0.119v1.07l-0.654,0.119c-1.191,0-1.834-0.596-1.834-1.664v-2.859h-1.082V75.115
			L130.809,75.115z"/>
	</g>
</g>
</svg>
