<?xml version="1.0" encoding="utf-8"?>
<!-- Generator: Adobe Illustrator 15.1.0, SVG Export Plug-In . SVG Version: 6.00 Build 0)  -->
<!DOCTYPE svg PUBLIC "-//W3C//DTD SVG 1.1//EN" "http://www.w3.org/Graphics/SVG/1.1/DTD/svg11.dtd">
<svg version="1.1" id="Layer_1" xmlns="http://www.w3.org/2000/svg" xmlns:xlink="http://www.w3.org/1999/xlink" x="0px" y="0px"
	 width="75px" height="75px" viewBox="0 0 75 75" enable-background="new 0 0 75 75" xml:space="preserve">
<g>
	<path fill="#00663C" d="M39.68,36.335l3.521-3.536l-15.615-5.343l5.118,15.896l3.487-3.508c0.178-0.176,0.418-0.275,0.669-0.275
		c0.249,0,0.489,0.1,0.666,0.274l7.864,7.865l2.166-2.166l-7.873-7.875C39.314,37.298,39.312,36.704,39.68,36.335z"/>
	<path fill="#00663C" d="M37.5,0C16.789,0,0,16.789,0,37.5S16.789,75,37.5,75S75,58.211,75,37.5S58.211,0,37.5,0z M49.553,46.209
		l-3.498,3.498c-0.184,0.184-0.424,0.275-0.666,0.275c-0.24,0-0.481-0.092-0.668-0.275l-7.86-7.863l-3.914,3.936
		c-0.233,0.23-0.566,0.328-0.888,0.253c-0.32-0.078-0.576-0.316-0.679-0.628l-6.168-19.157c-0.108-0.339-0.017-0.711,0.238-0.962
		c0.255-0.249,0.629-0.335,0.965-0.218l18.817,6.438c0.309,0.104,0.539,0.361,0.613,0.677c0.073,0.318-0.021,0.648-0.25,0.88
		L41.68,37l7.873,7.877C49.922,45.244,49.922,45.84,49.553,46.209z"/>
</g>
</svg>
