<?xml version="1.0" encoding="utf-8"?>
<!-- Generator: Adobe Illustrator 15.1.0, SVG Export Plug-In . SVG Version: 6.00 Build 0)  -->
<!DOCTYPE svg PUBLIC "-//W3C//DTD SVG 1.1//EN" "http://www.w3.org/Graphics/SVG/1.1/DTD/svg11.dtd">
<svg version="1.1" id="Layer_1" xmlns="http://www.w3.org/2000/svg" xmlns:xlink="http://www.w3.org/1999/xlink" x="0px" y="0px"
	 width="15px" height="15px" viewBox="0 0 15 15" enable-background="new 0 0 15 15" xml:space="preserve">
<g>
	<title>Layer 1</title>
	<path id="path12423" fill="#FFFFFF" d="M1.717,1.764C-0.509,3.99-0.515,7.639,1.712,9.865c1.887,1.886,4.796,2.174,6.993,0.862
		l3.93,3.82c0.54,0.524,1.394,0.505,1.909-0.044c0.517-0.549,0.503-1.412-0.037-1.937l-3.869-3.749
		c1.356-2.206,1.081-5.149-0.824-7.055C7.586-0.463,3.944-0.463,1.717,1.764L1.717,1.764L1.717,1.764z M3.351,3.396
		c1.343-1.343,3.486-1.343,4.829,0c1.344,1.343,1.344,3.486,0,4.83c-1.343,1.343-3.486,1.343-4.829,0
		C2.007,6.883,2.007,4.74,3.351,3.396z"/>
</g>
</svg>
